<?xml version="1.0" encoding="utf-8"?>
<!-- Generator: Adobe Illustrator 22.0.1, SVG Export Plug-In . SVG Version: 6.00 Build 0)  -->
<svg version="1.1" id="Layer_1" xmlns="http://www.w3.org/2000/svg" xmlns:xlink="http://www.w3.org/1999/xlink" x="0px" y="0px"
	 viewBox="-98 101.9 184.1 75.9" enable-background="new -98 101.9 184.1 75.9" xml:space="preserve">
<path fill="#F76E8E" d="M-97,167.9c8-24,28.9-64,64-64c-16.4,13.2-24,44-36,44s-12,0-12,0l-12,20H-97z"/>
<g>
	<path fill="#37505C" d="M-57.5,147.6c-0.4-1.7-0.8-3.8-1.2-6.4c-0.4-2.6-0.8-5.7-1.2-9.2c-0.4-3.5-0.8-6.6-1.2-9.2
		s-0.8-4.7-1.2-6.3c-0.1-0.6-0.1-1.1,0.2-1.6c0.3-0.5,0.7-0.8,1.2-0.8c0.5-0.1,0.9-0.1,1.4-0.1c1.3,0,2.3,0.6,3,1.8
		c0.4,2,0.9,5.4,1.4,10.3c0.6,4.9,1.3,11.3,2.1,19.2c1.2-4,1.9-6.9,2.3-8.8c0.2-0.9,0.4-1.9,0.6-3.1c0.2-1.2,0.4-2.5,0.6-3.9
		c0.2-0.9,0.4-1.8,0.6-2.7c0.2-0.9,0.4-1.8,0.6-2.7c0.2-2.1,1-3.2,2.4-3.2c0.5,0,1,0.1,1.5,0.2c0,0.3,0.3,0.4,0.6,0.5
		c0.4,0,0.6,0.1,0.6,0.2c1.1,2.3,1.8,5.4,2.3,9.2c0.5,2.7,0.9,5.4,1.3,7.9c0.4,2.6,0.7,5.1,1,7.7c0.7-4.2,1.2-7.8,1.8-10.9
		c0.5-3.1,1-5.6,1.4-7.7c1-4.8,2.2-8.7,3.8-11.8c0.3-0.6,1-0.9,2-0.9c0.7,0,1.4,0.1,2,0.4c1.1,0.5,1.6,1.3,1.6,2.2
		c0,0.7-0.3,1.5-0.8,2.7c-0.4,0.7-0.6,1.3-0.8,1.8c-0.2,0.4-0.3,0.7-0.3,0.8c-0.6,1.7-1.2,3.9-1.8,6.5c-0.7,2.6-1.4,5.7-2.1,9.2
		c-0.7,3.5-1.4,6.6-2,9.2s-1.2,4.7-1.7,6.3c-0.3,0.9-1.1,1.4-2.4,1.4c-0.5,0-1.1-0.1-1.6-0.3c-1.7-0.9-3-2.6-3.7-5.2
		c0-0.1-0.1-0.7-0.3-1.7c-0.1-1-0.4-2.5-0.7-4.5c-0.2-1.5-0.4-3.2-0.6-5.2s-0.5-4.2-0.8-6.6c-0.6,2.6-1.1,4.9-1.5,7.1
		c-0.4,2.2-0.9,4.2-1.2,6c-0.9,4.5-2,7.3-3.3,8.5c-0.4,0.4-1,0.4-2,0.1c-1.5-0.2-2.5-1-3-2.5L-57.5,147.6z"/>
	<path fill="#37505C" d="M-25.9,140c0-1.7,0.2-3.5,0.7-5.2c0.4-1.8,1.1-3.3,2-4.7c0.9-1.4,2-2.5,3.3-3.4c1.3-0.9,2.8-1.3,4.5-1.3
		c1.2,0,2.3,0.2,3.2,0.6c0.9,0.4,1.7,0.9,2.3,1.5c0.6,0.6,1.1,1.3,1.4,2.1c0.3,0.8,0.5,1.6,0.5,2.4c0,1.1-0.2,2.1-0.6,3.1
		c-0.4,1-1,1.9-1.7,2.7c-0.7,0.8-1.7,1.4-2.8,1.9c-1.1,0.5-2.3,0.8-3.7,0.8c-0.6,0-1.1,0-1.6-0.1c-0.5-0.1-1-0.2-1.6-0.4
		c0,0.2-0.1,0.4-0.1,0.6c0,0.2,0,0.3,0,0.4c0,1.7,0.3,3.1,0.8,4.1c0.5,1,1.1,1.7,1.7,2.2c0.6,0.5,1.2,0.8,1.8,0.9
		c0.6,0.1,0.9,0.2,1.1,0.2c1.4,0,2.6-0.3,3.6-1c1-0.7,2-1.4,3.2-2.2c0.2,0.1,0.5,0.2,0.8,0.3c0.3,0.1,0.5,0.3,0.8,0.7
		c0,0.3,0.1,0.5,0.1,0.7c0,0.2,0.1,0.4,0.1,0.7c0,0.7-0.2,1.2-0.5,1.6c-0.3,0.4-0.6,0.8-1,1.2c-1.2,1-2.3,1.7-3.4,2
		c-1,0.3-2.4,0.5-4.1,0.5c-0.7,0-1.7-0.2-2.8-0.5c-1.1-0.3-2-0.7-2.8-1c-1.1-0.8-2-1.7-2.6-2.5s-1.1-1.7-1.5-2.7
		c-0.4-0.9-0.6-1.9-0.7-2.9C-25.8,142.2-25.9,141.1-25.9,140z M-19.8,136.2c0.2,0,0.5,0.1,0.9,0.1c0.4,0,0.7,0,0.9,0
		c1.6,0,2.8-0.4,3.7-1.2c0.9-0.8,1.3-1.8,1.3-2.9c0-0.7-0.2-1.3-0.6-1.8c-0.4-0.6-0.9-0.8-1.5-0.8c-0.5,0-0.9,0-1.4,0.1
		c-0.4,0.1-0.8,0.3-1,0.7c-0.2,0.2-0.4,0.5-0.6,0.7c-0.2,0.2-0.5,0.6-0.7,1s-0.4,0.9-0.6,1.6C-19.6,134.4-19.7,135.2-19.8,136.2z"/>
	<path fill="#F76E8E" d="M2.9,130.1c0,0.1,0,0.4,0,0.8c0,0.4,0,0.9,0,1.4c0,0.5,0,1,0,1.5c0,0.5,0,0.8,0,0.9
		c0.4-0.8,0.9-1.7,1.4-2.5c0.5-0.8,1.4-2,2.6-3.6c0.1-0.1,0.3-0.3,0.6-0.6c0.3-0.3,0.8-0.6,1.3-0.9c0.5-0.3,1.1-0.6,1.8-0.8
		c0.7-0.2,1.4-0.4,2.1-0.4c1.4,0,2.5,0.4,3.4,1.2s1.5,1.7,2,2.8s0.8,2.3,1,3.6c0.2,1.3,0.3,2.5,0.3,3.5c0,0.6,0,1.4-0.1,2.4
		c-0.1,1-0.3,2.1-0.6,3.3c-0.3,1.2-0.7,2.3-1.2,3.5c-0.5,1.1-1.1,2.1-1.9,2.8c-1.1,1-2.3,1.7-3.8,2.2c-1.4,0.5-2.8,0.8-3.9,0.8
		c-1.2,0-2.3-0.1-3.5-0.3c-1.1-0.2-2.3-0.4-3.3-0.8c-0.3-0.1-0.5-0.4-0.8-0.8c-0.3-0.4-0.5-0.9-0.8-1.4c-0.3-0.5-0.5-1-0.7-1.6
		c-0.2-0.6-0.3-1.1-0.5-1.6c-0.1-0.1-0.3-0.6-0.4-1.4c-0.1-0.8-0.3-1.7-0.4-2.7c-0.1-1-0.2-2.1-0.3-3.3c-0.1-1.1-0.1-2.2-0.1-3
		c0-3.9,0.1-7.8,0.2-11.7c0.1-3.9,0.5-8.1,1-12.7c0-0.9,0-1.8,0.1-2.6c0.1-0.8,0.3-1.7,0.6-2.7c0.2-0.7,0.8-1.1,1.6-1.3
		c0.8-0.2,1.5-0.2,2.1-0.2c0.4,0,0.8,0.1,1.2,0.3c0.4,0.2,0.6,0.5,0.7,1c-0.2,3-0.6,5.8-1,8.5c-0.4,2.7-0.7,5.5-0.8,8.5L2.9,130.1z
		 M6.5,138.5c-0.2,0.7-0.5,1.3-0.7,1.9c-0.2,0.6-0.4,1.2-0.6,1.8c-0.2,0.6-0.3,1.2-0.4,1.9c-0.1,0.7-0.2,1.4-0.2,2.3
		c0.5,0.6,1,0.9,1.5,1c0.5,0.1,1.1,0.1,1.8,0.1c1.2-0.1,2.1-0.6,2.8-1.3c0.7-0.7,1.3-1.7,1.7-2.7c0.4-1.1,0.7-2.2,0.8-3.5
		c0.1-1.2,0.2-2.4,0.2-3.5c0-0.4,0-0.9,0-1.5c0-0.6-0.1-1.1-0.2-1.6c-0.1-0.5-0.3-1-0.5-1.3c-0.2-0.4-0.4-0.6-0.7-0.6
		c-0.3,0-0.7,0.2-1.2,0.7c-0.5,0.5-1.1,1-1.6,1.7c-0.6,0.7-1.1,1.4-1.6,2.1c-0.5,0.7-0.8,1.4-1,2L6.5,138.5z"/>
	<path fill="#F76E8E" d="M33.3,150.8c0,0.1,0,0.2,0.1,0.3c0,0.1,0.1,0.2,0.1,0.3c0,0.7-0.3,1.3-0.9,1.6c-0.6,0.4-1.3,0.5-1.9,0.5
		c-1.2,0-2.1-0.6-2.8-1.9s-1.2-2.8-1.6-4.5c-0.4-1.7-0.6-3.4-0.7-5.1c-0.1-1.7-0.2-2.9-0.2-3.8c0-2.3,0-4.3,0-6.1c0-1.8,0-3.7,0-5.6
		c0-2.6,0.1-5.1,0.4-7.5c0.3-2.5,0.4-5,0.4-7.7c0-0.6,0.1-1.1,0.4-1.5c0.3-0.4,0.7-0.7,1.1-1.1c0.4,0,0.8,0,1.4,0.1
		c0.5,0,1,0.2,1.5,0.4c0.5,0.2,0.9,0.4,1.2,0.8c0.3,0.3,0.5,0.8,0.5,1.4c0,1.2-0.1,2.4-0.3,3.7c-0.2,1.2-0.4,2.5-0.4,3.7
		c0,1.8,0,3.4,0,4.8c0,1.4,0,2.8,0,4.2c0,1.2,0,2.4,0.1,3.5c0,1.1,0.1,2.2,0.1,3.3c0,0.8,0,1.6,0,2.3c0,0.7,0,1.4,0,2.1
		c0,1.8,0.2,3.9,0.6,6.1C32.5,147.2,32.9,149.2,33.3,150.8z"/>
	<path fill="#F76E8E" d="M46.3,152c-0.8,0-1.5-0.2-2.1-0.7c-0.6-0.4-1.3-0.9-2-1.3c-1.5-0.9-2.7-2.1-3.6-3.5
		c-0.8-1.4-1.3-3.2-1.3-5.3c0-1,0.2-2.3,0.5-3.7c0.3-1.4,0.7-2.7,0.9-4c0.1-0.5,0.5-1.2,1-2.1c0.5-0.9,1.2-1.8,1.9-2.7
		c0.8-0.9,1.6-1.6,2.6-2.3c1-0.7,2-1,3-1c0.4,0,0.8,0.1,1.3,0.4c0.7,0.4,1.3,0.8,2,1.1c0.7,0.3,1.4,0.6,2.1,0.8
		c0.7,0.3,1.4,0.6,2.1,0.9c0.7,0.3,1.4,0.7,2,1.3c0.5,0.4,0.9,0.9,1.2,1.5c0.3,0.6,0.6,1.2,0.8,1.8c0.2,0.5,0.4,0.9,0.4,1.4
		c0,0.5,0.1,1,0.1,1.5v1.3c0,1.4-0.3,2.8-0.9,4c-0.5,1.2-1.2,2.4-1.9,3.6c-0.4,0.6-0.9,1.3-1.5,2.1c-0.6,0.8-1.3,1.5-2,2.2
		c-0.7,0.7-1.5,1.3-2.3,1.8c-0.8,0.5-1.6,0.7-2.5,0.7c-0.2,0-0.5,0-0.7,0c-0.3,0-0.5,0-0.8,0H46.3z M53.1,135.3
		c0-1.4-0.5-2.3-1.5-2.9c-1-0.6-2.1-0.9-3.2-0.9c-0.9,0-1.7,0.4-2.4,1.1c-0.7,0.7-1.2,1.6-1.7,2.7c-0.5,1-0.8,2.2-1,3.4
		c-0.2,1.2-0.3,2.2-0.3,3.1c0,0.2,0,0.6,0.1,1.1c0.1,0.6,0.2,1.1,0.4,1.8c0.2,0.6,0.5,1.1,0.8,1.6c0.4,0.5,0.8,0.7,1.4,0.7
		c0.5,0,1-0.1,1.4-0.2c0.4-0.2,0.9-0.4,1.4-0.6c0.7-0.5,1.4-1.1,2-1.9c0.6-0.8,1-1.7,1.4-2.6c0.3-0.9,0.6-1.9,0.8-2.9s0.4-2,0.5-2.9
		V135.3z"/>
	<path fill="#F76E8E" d="M78.5,127.6c0.2-0.1,0.5-0.2,0.7-0.2c0.2,0,0.4-0.1,0.7-0.2c0.4,0.1,0.9,0.2,1.4,0.2c0.5,0,1.1,0.2,1.7,0.4
		c0.1,1.1,0.2,2.1,0.4,3.1c0.2,1,0.2,2.1,0.2,3.2c0,3.3,0.1,6.8,0.3,10.4c0.2,3.6,0.3,7.8,0.3,12.5c0,2.2-0.2,4.5-0.5,6.7
		c-0.3,2.2-1,4.3-2.2,6.3c-0.4,0.4-0.7,0.9-1,1.6c-0.3,0.6-0.8,1.3-1.3,1.9c-0.6,0.6-1.3,1.2-2.1,1.7c-0.9,0.5-2,0.8-3.4,0.9
		c-0.7-0.2-1.3-0.4-1.8-0.6c-0.5-0.2-0.8-0.7-1-1.7c0.4-0.8,1-1.6,1.8-2.1c0.8-0.6,1.6-1.4,2.5-2.5c0.8-1.1,1.6-2.6,2.2-4.7
		c0.6-2,0.9-4.9,0.9-8.7c0-1,0-2,0-3c0-1,0-1.9-0.1-2.8c0-0.9-0.1-1.9-0.2-2.9c-0.1-1-0.2-2.1-0.3-3.2c-0.5,1-1,1.9-1.5,2.8
		c-0.5,0.9-1.2,1.6-2,2.3c-0.8,0.7-1.7,1.3-2.7,1.8c-1,0.5-2.3,0.8-3.7,1c-0.7-0.3-1.3-0.7-2-1.1c-0.7-0.4-1.3-0.9-1.9-1.5
		c-0.6-0.6-1-1.2-1.4-1.9c-0.4-0.7-0.5-1.5-0.5-2.4c0-0.3,0-0.5,0.1-0.6c0.3-1.1,0.9-2.7,1.6-4.7c0.7-2,1.7-4,2.8-6
		c1.1-2,2.5-3.7,4-5.1c1.5-1.4,3.3-2.2,5.2-2.2c0.4,0,0.7,0,1.1,0.1c0.4,0.1,0.7,0.2,1.1,0.4L78.5,127.6z M68.9,146.4
		c0.7-0.1,1.4-0.5,2.1-1.3c0.7-0.7,1.4-1.7,2.1-2.9c0.7-1.2,1.3-2.5,1.9-4.1c0.6-1.5,1.2-3.1,1.7-4.8c0-0.5,0.1-1,0.2-1.5
		c0.1-0.5,0.2-1,0.2-1.5c-0.7,0-1.4,0.2-1.9,0.5c-0.5,0.3-1,0.6-1.4,1c-0.4,0.4-0.8,0.9-1.1,1.4c-0.3,0.5-0.7,1-1,1.4
		c-0.4,0.8-0.8,1.6-1.3,2.5c-0.5,0.9-1,1.7-1.4,2.6c-0.4,0.9-0.8,1.8-1.1,2.7c-0.3,0.9-0.5,1.8-0.5,2.6
		C67.5,145.8,68,146.2,68.9,146.4z"/>
</g>
</svg>
